<?xml version="1.0"?>
<svg xmlns="http://www.w3.org/2000/svg" height="512px" viewBox="0 0 512 512" width="512px"><path d="m474 107.984375c-17.492188 0-32.253906 11.882813-36.65625 28h-74.84375c-5-46.042969-44.105469-82-91.457031-82h-101.949219c-19.234375 0-37.3125-7.488281-50.914062-21.089844l-29.964844-29.964843c-3.90625-3.90625-10.238282-3.90625-14.140625 0-3.90625 3.90625-3.90625 10.238281 0 14.140624l29.964843 29.96875c17.375 17.375 40.480469 26.945313 65.054688 26.945313h101.953125c36.304687 0 66.402344 27.019531 71.289063 62h-32.164063v-1.425781c0-5.519532-4.476563-10-10-10s-10 4.480468-10 10v1.425781h-33.539063v-1.425781c0-5.519532-4.476562-10-10-10-5.523437 0-10 4.480468-10 10v1.425781h-101.277343c-5.523438 0-10 4.476563-10 10s4.476562 10 10 10h47.738281v158h-67.15625c-54.585938 0-99 44.410156-99 99s44.410156 99 99 99h190.234375c61.25 0 111.078125-49.828125 111.078125-111.078125v-79.757812c0-5.519532-4.476562-10-10-10s-10 4.480468-10 10v79.757812c0 50.222656-40.855469 91.078125-91.078125 91.078125h-190.234375c-43.558594 0-79-35.4375-79-79 0-43.558594 35.441406-79 79-79h77.15625c5.523438 0 10-4.476563 10-10v-168h33.539062v18c0 5.523437 4.476563 10 10 10 5.523438 0 10-4.476563 10-10v-18h33.539063v18c0 5.523437 4.476563 10 10 10s10-4.476563 10-10v-18h33.539063v18c0 5.523437 4.476562 10 10 10 5.523437 0 10-4.476563 10-10v-18h33.539062v85.117187c0 5.523438 4.476562 10 10 10s10-4.476562 10-10v-85.117187h20.09375c4.402344 16.117187 19.164062 28 36.65625 28 20.953125 0 38-17.046875 38-38s-17.046875-38-38-38zm0 56c-9.925781 0-18-8.074219-18-18s8.074219-18 18-18 18 8.074219 18 18-8.074219 18-18 18zm0 0" fill="#D80027"/><path d="m65.355469 145.984375c0-5.523437-4.476563-10-10-10h-45.355469c-5.523438 0-10 4.476563-10 10s4.476562 10 10 10h45.355469c5.523437 0 10-4.476563 10-10zm0 0" fill="#D80027"/><path d="m102.429688 153.050781c1.859374-1.859375 2.921874-4.4375 2.921874-7.070312 0-2.628907-1.0625-5.207031-2.921874-7.066407-1.871094-1.863281-4.441407-2.933593-7.078126-2.933593-2.632812 0-5.210937 1.070312-7.070312 2.933593-1.859375 1.859376-2.929688 4.4375-2.929688 7.066407 0 2.632812 1.070313 5.210937 2.929688 7.070312 1.859375 1.863281 4.4375 2.929688 7.070312 2.929688 2.636719 0 5.207032-1.066407 7.078126-2.929688zm0 0" fill="#D80027"/><path d="m407.25 271.101562c-2.628906 0-5.210938 1.070313-7.070312 2.929688-1.859376 1.859375-2.929688 4.441406-2.929688 7.070312 0 2.628907 1.070312 5.210938 2.929688 7.070313 1.859374 1.859375 4.441406 2.929687 7.070312 2.929687s5.210938-1.070312 7.070312-2.929687c1.859376-1.859375 2.929688-4.441406 2.929688-7.070313 0-2.628906-1.070312-5.210937-2.929688-7.070312-1.859374-1.859375-4.441406-2.929688-7.070312-2.929688zm0 0" fill="#D80027"/><path d="m371.65625 373.0625c-3.90625-3.90625-10.238281-3.90625-14.144531 0l-12.929688 12.925781-12.929687-12.925781c-3.902344-3.90625-10.234375-3.90625-14.140625 0-3.90625 3.902344-3.90625 10.234375 0 14.140625l20 20c1.953125 1.953125 4.511719 2.929687 7.070312 2.929687 2.558594 0 5.117188-.976562 7.070313-2.929687l20-20c3.90625-3.902344 3.90625-10.234375.003906-14.140625zm0 0" fill="#D80027"/><path d="m292.863281 373.0625c-3.90625-3.90625-10.238281-3.90625-14.144531 0l-12.929688 12.925781-12.925781-12.925781c-3.90625-3.90625-10.238281-3.90625-14.144531 0-3.90625 3.902344-3.90625 10.234375 0 14.140625l20 20c1.953125 1.953125 4.511719 2.929687 7.070312 2.929687 2.558594 0 5.121094-.976562 7.070313-2.929687l20-20c3.910156-3.902344 3.910156-10.234375.003906-14.140625zm0 0" fill="#D80027"/><path d="m214.070312 373.0625c-3.90625-3.90625-10.234374-3.90625-14.140624 0l-12.929688 12.925781-12.929688-12.925781c-3.90625-3.90625-10.234374-3.90625-14.140624 0-3.90625 3.902344-3.90625 10.234375 0 14.140625l20 20c1.953124 1.953125 4.511718 2.929687 7.070312 2.929687s5.117188-.976562 7.070312-2.929687l20-20c3.90625-3.902344 3.90625-10.234375 0-14.140625zm0 0" fill="#D80027"/><path d="m135.09375 373.0625c-3.90625-3.90625-10.238281-3.90625-14.144531 0l-12.929688 12.925781-12.929687-12.925781c-3.902344-3.90625-10.234375-3.90625-14.140625 0-3.90625 3.902344-3.90625 10.234375 0 14.140625l20 20c1.953125 1.953125 4.511719 2.929687 7.070312 2.929687 2.558594 0 5.117188-.976562 7.070313-2.929687l20-20c3.90625-3.902344 3.90625-10.234375.003906-14.140625zm0 0" fill="#D80027"/><path d="m357.511719 427.914062-12.929688 12.929688-12.929687-12.929688c-3.902344-3.90625-10.234375-3.90625-14.140625 0-3.90625 3.902344-3.90625 10.234376 0 14.140626l20 20c1.953125 1.953124 4.511719 2.929687 7.070312 2.929687 2.558594 0 5.117188-.976563 7.070313-2.929687l20-20c3.90625-3.902344 3.90625-10.234376 0-14.140626s-10.234375-3.90625-14.140625 0zm0 0" fill="#D80027"/><path d="m278.71875 427.914062-12.929688 12.929688-12.925781-12.929688c-3.90625-3.90625-10.238281-3.90625-14.144531 0-3.90625 3.902344-3.90625 10.234376 0 14.140626l20 20c1.953125 1.953124 4.511719 2.929687 7.070312 2.929687 2.558594 0 5.121094-.976563 7.070313-2.929687l20-20c3.90625-3.902344 3.90625-10.234376 0-14.140626-3.902344-3.90625-10.234375-3.90625-14.140625 0zm0 0" fill="#D80027"/><path d="m199.929688 427.914062-12.929688 12.929688-12.929688-12.929688c-3.90625-3.90625-10.234374-3.90625-14.140624 0-3.90625 3.902344-3.90625 10.234376 0 14.140626l20 20c1.953124 1.953124 4.511718 2.929687 7.070312 2.929687s5.117188-.976563 7.070312-2.929687l20-20c3.90625-3.902344 3.90625-10.234376 0-14.140626s-10.234374-3.90625-14.140624 0zm0 0" fill="#D80027"/><path d="m120.949219 427.914062-12.929688 12.929688-12.925781-12.929688c-3.90625-3.90625-10.238281-3.90625-14.144531 0-3.90625 3.902344-3.90625 10.234376 0 14.140626l20 20c1.953125 1.953124 4.511719 2.929687 7.070312 2.929687 2.558594 0 5.121094-.976563 7.070313-2.929687l20-20c3.90625-3.902344 3.90625-10.234376 0-14.140626-3.902344-3.90625-10.234375-3.90625-14.140625 0zm0 0" fill="#D80027"/><path d="m317.136719 277.5 20 20c1.953125 1.953125 4.511719 2.929688 7.070312 2.929688 2.558594 0 5.121094-.976563 7.070313-2.929688l20-20c3.90625-3.902344 3.90625-10.234375 0-14.140625-3.902344-3.90625-10.234375-3.90625-14.140625 0l-12.929688 12.929687-12.929687-12.929687c-3.90625-3.90625-10.238282-3.90625-14.140625 0-3.90625 3.902344-3.90625 10.234375 0 14.140625zm0 0" fill="#D80027"/><path d="m238.34375 277.5 20 20c1.953125 1.953125 4.511719 2.929688 7.070312 2.929688 2.5625 0 5.121094-.976563 7.074219-2.929688l20-20c3.902344-3.902344 3.902344-10.234375 0-14.140625-3.90625-3.90625-10.238281-3.90625-14.144531 0l-12.929688 12.929687-12.929687-12.929687c-3.902344-3.90625-10.234375-3.90625-14.140625 0-3.90625 3.902344-3.902344 10.234375 0 14.140625zm0 0" fill="#D80027"/><path d="m317.136719 332.351562 20 20c1.953125 1.953126 4.511719 2.929688 7.070312 2.929688 2.558594 0 5.121094-.976562 7.070313-2.929688l20-20c3.90625-3.90625 3.90625-10.238281 0-14.140624-3.902344-3.90625-10.234375-3.90625-14.140625 0l-12.929688 12.925781-12.929687-12.925781c-3.90625-3.90625-10.238282-3.90625-14.140625 0-3.90625 3.902343-3.90625 10.234374 0 14.140624zm0 0" fill="#D80027"/><path d="m238.34375 332.351562 20 20c1.953125 1.953126 4.511719 2.929688 7.070312 2.929688 2.5625 0 5.121094-.976562 7.074219-2.929688l20-20c3.902344-3.90625 3.902344-10.238281 0-14.140624-3.90625-3.90625-10.238281-3.90625-14.144531 0l-12.929688 12.925781-12.929687-12.925781c-3.902344-3.90625-10.234375-3.90625-14.140625 0-3.90625 3.902343-3.902344 10.234374 0 14.140624zm0 0" fill="#D80027"/><path d="m337.136719 242.648438c1.953125 1.953124 4.511719 2.929687 7.070312 2.929687 2.558594 0 5.121094-.976563 7.070313-2.929687l20-20c3.90625-3.90625 3.90625-10.234376 0-14.140626-3.902344-3.90625-10.234375-3.90625-14.140625 0l-12.929688 12.925782-12.929687-12.925782c-3.90625-3.90625-10.238282-3.90625-14.140625 0-3.90625 3.902344-3.90625 10.234376 0 14.140626zm0 0" fill="#D80027"/><path d="m258.34375 242.648438c1.953125 1.953124 4.511719 2.929687 7.070312 2.929687 2.5625 0 5.121094-.976563 7.074219-2.929687l20-20c3.902344-3.90625 3.902344-10.234376 0-14.140626-3.90625-3.90625-10.238281-3.90625-14.144531 0l-12.929688 12.925782-12.929687-12.925782c-3.902344-3.90625-10.234375-3.90625-14.140625 0-3.90625 3.902344-3.90625 10.234376 0 14.140626zm0 0" fill="#D80027"/></svg>
